<svg xmlns="http://www.w3.org/2000/svg" viewBox="0 0 1440 600" role="img" aria-labelledby="title desc">
  <title id="title">Knowledge Camp Training Room</title>
  <desc id="desc">Stylised illustration of a modern corporate training room with a presenter and delegates.</desc>
  <defs>
    <linearGradient id="bg" x1="0" y1="0" x2="1" y2="1">
      <stop offset="0" stop-color="#0f172a" />
      <stop offset="1" stop-color="#1e293b" />
    </linearGradient>
  </defs>
  <rect width="1440" height="600" fill="url(#bg)" />
  <rect x="80" y="120" width="1280" height="360" rx="24" fill="#020617" opacity="0.65" />
  <rect x="140" y="180" width="360" height="16" rx="8" fill="#e5e7eb" opacity="0.8" />
  <rect x="140" y="212" width="260" height="10" rx="5" fill="#9ca3af" opacity="0.8" />
  <rect x="140" y="244" width="220" height="10" rx="5" fill="#6b7280" opacity="0.8" />
  <rect x="560" y="210" width="260" height="180" rx="18" fill="#020617" opacity="0.9" />
  <rect x="580" y="228" width="220" height="120" rx="12" fill="#0b1120" />
  <rect x="600" y="248" width="140" height="12" rx="6" fill="#22c55e" opacity="0.9" />
  <rect x="600" y="272" width="90" height="8" rx="4" fill="#38bdf8" opacity="0.9" />
  <rect x="600" y="292" width="70" height="8" rx="4" fill="#e5e7eb" opacity="0.8" />
  <circle cx="1040" cy="260" r="40" fill="#22c55e" opacity="0.95" />
  <rect x="1018" y="238" width="44" height="8" rx="4" fill="#ecfdf5" />
  <rect x="1018" y="252" width="36" height="8" rx="4" fill="#bbf7d0" />
  <rect x="1018" y="266" width="20" height="8" rx="4" fill="#bbf7d0" />
  <g opacity="0.9" fill="#020617">
    <rect x="220" y="340" width="160" height="70" rx="14" />
    <rect x="480" y="340" width="160" height="70" rx="14" />
    <rect x="740" y="340" width="160" height="70" rx="14" />
    <rect x="1000" y="340" width="160" height="70" rx="14" />
  </g>
  <g opacity="0.95">
    <circle cx="260" cy="332" r="20" fill="#38bdf8" />
    <circle cx="520" cy="332" r="20" fill="#6366f1" />
    <circle cx="780" cy="332" r="20" fill="#f97316" />
    <circle cx="1040" cy="332" r="20" fill="#22c55e" />
  </g>
  <text x="140" y="120" fill="#e5e7eb" font-family="system-ui, -apple-system, BlinkMacSystemFont, 'Segoe UI', sans-serif" font-size="24" font-weight="600">
    Knowledge Camp Global
  </text>
  <text x="140" y="150" fill="#9ca3af" font-family="system-ui, -apple-system, BlinkMacSystemFont, 'Segoe UI', sans-serif" font-size="16">
    Professional training and skills development across Africa and globally
  </text>
</svg>
