<svg viewBox="0 0 1920 1080" xmlns="http://www.w3.org/2000/svg">
  <defs>
    <linearGradient id="lms1" x1="0%" y1="0%" x2="100%" y2="100%">
      <stop offset="0%" style="stop-color:#f3e8ff;stop-opacity:1" />
      <stop offset="100%" style="stop-color:#e9d5ff;stop-opacity:1" />
    </linearGradient>
  </defs>
  <rect width="1920" height="1080" fill="url(#lms1)"/>
  
  <!-- Modern tech workspace -->
  <rect x="300" y="200" width="1320" height="650" fill="rgba(200, 200, 200, 0.1)" stroke="rgba(100, 100, 100, 0.2)" stroke-width="2" rx="15"/>
  
  <!-- Large monitor setup -->
  <rect x="500" y="250" width="900" height="500" fill="rgba(50, 100, 180, 0.2)" stroke="rgba(30, 80, 160, 0.3)" stroke-width="3" rx="15"/>
  
  <!-- Dashboard interface (abstract) -->
  <!-- Top nav -->
  <rect x="550" y="300" width="800" height="50" fill="rgba(100, 150, 200, 0.15)" stroke="rgba(80, 120, 180, 0.2)" stroke-width="1"/>
  
  <!-- Sidebar -->
  <rect x="550" y="360" width="150" height="350" fill="rgba(80, 120, 180, 0.1)" stroke="rgba(60, 100, 160, 0.15)" stroke-width="1"/>
  
  <!-- Menu items (abstract lines) -->
  <line x1="570" y1="390" x2="680" y2="390" stroke="rgba(80, 120, 180, 0.3)" stroke-width="3" stroke-linecap="round"/>
  <line x1="570" y1="430" x2="680" y2="430" stroke="rgba(80, 120, 180, 0.3)" stroke-width="3" stroke-linecap="round"/>
  <line x1="570" y1="470" x2="680" y2="470" stroke="rgba(80, 120, 180, 0.3)" stroke-width="3" stroke-linecap="round"/>
  <line x1="570" y1="510" x2="680" y2="510" stroke="rgba(80, 120, 180, 0.3)" stroke-width="3" stroke-linecap="round"/>
  <line x1="570" y1="550" x2="680" y2="550" stroke="rgba(80, 120, 180, 0.3)" stroke-width="3" stroke-linecap="round"/>
  
  <!-- Main content area -->
  <rect x="730" y="360" width="600" height="350" fill="rgba(100, 180, 100, 0.1)" stroke="rgba(80, 160, 80, 0.15)" stroke-width="1" rx="10"/>
  
  <!-- Dashboard cards (abstract) -->
  <rect x="760" y="390" width="140" height="100" fill="rgba(100, 200, 100, 0.2)" rx="5"/>
  <text x="830" y="450" font-size="14" fill="rgba(60, 160, 60, 0.5)" text-anchor="middle" font-family="Arial, sans-serif">Courses</text>
  
  <rect x="930" y="390" width="140" height="100" fill="rgba(150, 150, 255, 0.2)" rx="5"/>
  <text x="1000" y="450" font-size="14" fill="rgba(100, 100, 200, 0.5)" text-anchor="middle" font-family="Arial, sans-serif">Progress</text>
  
  <rect x="1100" y="390" width="140" height="100" fill="rgba(255, 200, 100, 0.2)" rx="5"/>
  <text x="1170" y="450" font-size="14" fill="rgba(200, 150, 50, 0.5)" text-anchor="middle" font-family="Arial, sans-serif">Analytics</text>
  
  <!-- Professional at desk (small, on side) -->
  <circle cx="1650" cy="450" r="35" fill="rgba(100, 100, 100, 0.25)" stroke="rgba(60, 60, 60, 0.35)" stroke-width="2"/>
  <rect x="1630" y="485" width="40" height="70" fill="rgba(100, 100, 100, 0.2)"/>
  
  <!-- Title -->
  <text x="960" y="950" font-size="56" fill="rgba(70, 50, 150, 0.8)" font-weight="bold" text-anchor="middle" font-family="Arial, sans-serif">Learning Management System</text>
  <text x="960" y="1020" font-size="28" fill="rgba(90, 70, 160, 0.6)" text-anchor="middle" font-family="Arial, sans-serif">Advanced Platform Coming Soon</text>
</svg>
