<svg xmlns="http://www.w3.org/2000/svg" viewBox="0 0 1200 500" role="img" aria-labelledby="title desc">
  <title id="title">Knowledge Camp Course Catalog</title>
  <desc id="desc">Stylised illustration representing multiple professional training courses.</desc>
  <defs>
    <linearGradient id="bg" x1="0" y1="0" x2="1" y2="1">
      <stop offset="0" stop-color="#0f172a" />
      <stop offset="1" stop-color="#1e293b" />
    </linearGradient>
  </defs>
  <rect width="1200" height="500" fill="url(#bg)" />
  <g transform="translate(120,120)">
    <rect x="0" y="0" width="260" height="260" rx="18" fill="#020617" opacity="0.9" />
    <rect x="20" y="24" width="160" height="14" rx="7" fill="#e5e7eb" />
    <rect x="20" y="52" width="120" height="10" rx="5" fill="#9ca3af" />
    <rect x="20" y="72" width="140" height="10" rx="5" fill="#6b7280" />
    <rect x="20" y="112" width="80" height="10" rx="5" fill="#38bdf8" />
    <rect x="20" y="132" width="60" height="10" rx="5" fill="#22c55e" />
  </g>
  <g transform="translate(420,120)">
    <rect x="0" y="0" width="260" height="260" rx="18" fill="#020617" opacity="0.85" />
    <rect x="20" y="24" width="180" height="14" rx="7" fill="#e5e7eb" />
    <rect x="20" y="52" width="130" height="10" rx="5" fill="#9ca3af" />
    <rect x="20" y="72" width="110" height="10" rx="5" fill="#6b7280" />
    <rect x="20" y="112" width="90" height="10" rx="5" fill="#f97316" />
    <rect x="20" y="132" width="70" height="10" rx="5" fill="#22c55e" />
  </g>
  <g transform="translate(720,120)">
    <rect x="0" y="0" width="260" height="260" rx="18" fill="#020617" opacity="0.8" />
    <rect x="20" y="24" width="190" height="14" rx="7" fill="#e5e7eb" />
    <rect x="20" y="52" width="140" height="10" rx="5" fill="#9ca3af" />
    <rect x="20" y="72" width="120" height="10" rx="5" fill="#6b7280" />
    <rect x="20" y="112" width="80" height="10" rx="5" fill="#6366f1" />
    <rect x="20" y="132" width="60" height="10" rx="5" fill="#22c55e" />
  </g>
  <text x="120" y="80" fill="#e5e7eb" font-family="system-ui, -apple-system, BlinkMacSystemFont, 'Segoe UI', sans-serif" font-size="26" font-weight="600">
    Explore 70+ professional training courses
  </text>
  <text x="120" y="110" fill="#9ca3af" font-family="system-ui, -apple-system, BlinkMacSystemFont, 'Segoe UI', sans-serif" font-size="16">
    Leadership, Finance, Project Management, AI, Governance, and more
  </text>
</svg>
