<svg xmlns="http://www.w3.org/2000/svg" viewBox="0 0 1200 360" role="img" aria-labelledby="title desc">
  <title id="title">Knowledge Camp Course Experience</title>
  <desc id="desc">Illustration of delegates engaged in a focused instructor-led training session.</desc>
  <defs>
    <linearGradient id="bg" x1="0" y1="0" x2="1" y2="1">
      <stop offset="0" stop-color="#020617" />
      <stop offset="1" stop-color="#0f172a" />
    </linearGradient>
  </defs>
  <rect width="1200" height="360" fill="url(#bg)" />
  <rect x="80" y="80" width="520" height="220" rx="24" fill="#020617" opacity="0.9" />
  <rect x="110" y="110" width="300" height="14" rx="7" fill="#e5e7eb" />
  <rect x="110" y="138" width="220" height="10" rx="5" fill="#9ca3af" />
  <rect x="110" y="158" width="260" height="10" rx="5" fill="#6b7280" />
  <rect x="110" y="190" width="120" height="10" rx="5" fill="#22c55e" />
  <rect x="110" y="210" width="100" height="10" rx="5" fill="#38bdf8" />
  <g transform="translate(660,90)">
    <rect x="0" y="0" width="420" height="220" rx="24" fill="#020617" opacity="0.9" />
    <circle cx="80" cy="80" r="34" fill="#38bdf8" />
    <circle cx="180" cy="70" r="26" fill="#6366f1" />
    <circle cx="280" cy="90" r="30" fill="#f97316" />
    <circle cx="340" cy="70" r="22" fill="#22c55e" />
    <rect x="40" y="140" width="140" height="10" rx="5" fill="#e5e7eb" />
    <rect x="40" y="160" width="110" height="8" rx="4" fill="#9ca3af" />
    <rect x="220" y="140" width="140" height="10" rx="5" fill="#e5e7eb" />
    <rect x="220" y="160" width="100" height="8" rx="4" fill="#9ca3af" />
  </g>
</svg>
